<svg width="20" height="20" fill="none" xmlns="http://www.w3.org/2000/svg"><path d="M2.267 5.733c0 1.467.466 2.6 1.466 3.2.8.534 1.734.6 2.2.6H6.2s-.133 1 .6 2h-.067c-1.266 0-5.466.267-5.466 3.734 0 3.533 3.866 3.666 4.666 3.666h.2c.467 0 1.8-.066 3-.666 1.534-.734 2.334-2.067 2.334-3.867 0-1.733-1.2-2.8-2.067-3.6-.533-.467-1-.867-1-1.267 0-.4.333-.733.733-1.066.667-.6 1.334-1.467 1.334-3.134 0-1.466-.2-2.466-1.334-3.066.2-.067.667-.134.867-.134.6-.066 1.533-.2 1.533-.666v-.134h-4.6c-.066 0-4.666.2-4.666 4.4Zm7.466 9c.067 1.4-1.133 2.467-2.933 2.6-1.867.134-3.333-.666-3.4-2.066-.067-.667.267-1.334.867-1.867.6-.533 1.4-.867 2.266-.933h.334c1.6-.067 2.733.933 2.866 2.266Zm-1.2-10C9 6.333 8.333 8 7.2 8.267c-.133.066-.267.066-.4.066-1 0-2-1-2.333-2.4-.2-.733-.2-1.4.066-2.066.2-.667.667-1.067 1.134-1.2.133-.067.266-.067.4-.067 1.2 0 1.933.467 2.466 2.133Zm7.734 3.4v-3h-2v3h-3v2h3v3h2v-3h3v-2h-3Z" fill="#000"/></svg>