<svg width="20" height="20" fill="none" xmlns="http://www.w3.org/2000/svg"><path d="M17.467 6.4v.467c0 5-3.8 10.733-10.734 10.733-2.133 0-4.133-.6-5.8-1.667.267 0 .6.067.934.067 1.8 0 3.4-.6 4.666-1.6-1.666 0-3.066-1.133-3.533-2.6.2.067.467.067.733.067.334 0 .667-.067 1-.134C3 11.333 1.667 9.8 1.667 8v-.067C2.2 8.2 2.733 8.4 3.4 8.4c-1-.667-1.667-1.8-1.667-3.133 0-.667.2-1.334.534-1.867 1.866 2.267 4.666 3.8 7.8 3.933C10 7.067 10 6.8 10 6.467c0-2.067 1.667-3.8 3.8-3.8 1.067 0 2.067.466 2.733 1.2.867-.2 1.667-.467 2.4-.934A3.652 3.652 0 0 1 17.267 5c.666-.067 1.4-.267 2.066-.533-.533.733-1.133 1.4-1.866 1.933Z" fill="#000"/></svg>